#!OML:ASF E:\emotionWalksFemale\Project 1\Capture day 1\Session 1\Female1.ASF
:FULLY-SPECIFIED
:DEGREES
1
root 8.65996 15.156 41.9088 177.457 -6.07419 -179.694
lowerback 6.11846 3.44275 5.57155
upperback -4.03417 4.94461 -1.98187
thorax -7.03438 2.07502 -5.78799
lowerneck -1.9819 16.5134 10.9113
upperneck 8.99229 21.936 -4.43828
head 4.69038 10.9645 -1.65417
rclavicle 1.0471e-013 -2.0276e-014
rhumerus -45.7861 13.5089 -100.543
rradius 32.0891
rwrist 19.0052
rhand -2.16605 -55.5129
rfingers 7.12502
rthumb 23.5141 -84.0957
lclavicle 1.0471e-013 -2.0276e-014
lhumerus -43.0931 -13.7019 91.9585
lradius 37.8289
lwrist -10.5189
lhand -5.88618 -33.5261
lfingers 7.12502
lthumb 19.9418 -4.52933
rfemur -4.88456 11.9425 23.9964
rtibia 28.3852
rfoot -24.6364 -30.4411
rtoes 5.44186
lfemur -6.58169 -21.913 -25.6168
ltibia 28.4712
lfoot -23.3639 16.8266
ltoes -28.7254
2
root 8.66003 15.1533 41.9088 177.411 -6.13929 -179.761
lowerback 6.13269 3.20129 5.30163
upperback -3.86825 4.61842 -1.70969
thorax -6.94969 1.94561 -5.30895
lowerneck -2.3788 16.7706 10.1706
upperneck 9.07705 22.2798 -4.27975
head 4.70497 11.1103 -1.45832
rclavicle 2.37548e-014 -1.19271e-015
rhumerus -45.8529 14.6699 -100.588
rradius 32.4673
rwrist 18.7695
rhand -3.4158 -54.5131
rfingers 7.12502
rthumb 22.3149 -83.2446
lclavicle 2.37548e-014 -1.19271e-015
lhumerus -42.8474 -13.0414 92.036
lradius 37.8144
lwrist -10.3046
lhand -6.00925 -33.797
lfingers 7.12502
lthumb 19.8235 -4.78791
rfemur -4.82199 11.9172 23.9387
rtibia 28.4041
rfoot -24.575 -30.637
rtoes 5.16438
lfemur -6.52579 -21.8932 -25.7161
ltibia 28.478
lfoot -23.2712 16.8498
ltoes -29.9564
3
root 8.65885 15.1549 41.9059 177.527 -6.06268 -179.769
lowerback 5.82743 2.52973 4.74487
upperback -3.58212 3.71574 -0.711794
thorax -6.67617 1.57186 -3.82144
lowerneck -2.83981 17.5438 7.66956
upperneck 9.07414 23.4127 -3.99989
head 4.5346 11.5896 -0.97579
rclavicle 2.29884e-014 8.07563e-017
rhumerus -45.991 18.2824 -100.574
rradius 32.6115
rwrist 18.0246
rhand -3.39069 -54.6108
rfingers 7.12502
rthumb 22.339 -83.3394
lclavicle 2.29884e-014 8.07563e-017
lhumerus -42.1945 -9.40289 91.9965
lradius 37.6076
lwrist -11.1168
lhand -5.83345 -33.9713
lfingers 7.12502
lthumb 19.9925 -4.97982
rfemur -4.94301 11.895 23.8801
rtibia 28.3766
rfoot -24.5121 -30.461
rtoes 5.07404
lfemur -6.65772 -21.8865 -25.6935
ltibia 28.5202
lfoot -23.2612 16.9339
ltoes -31.5139
4
root 8.65741 15.1526 41.9033 177.467 -6.08523 -179.697
lowerback 5.85098 2.49063 4.87797
upperback -3.56814 3.67924 -0.664596
thorax -6.67412 1.54923 -3.84344
lowerneck -2.83753 17.5696 7.54385
upperneck 9.17211 23.447 -3.90799
head 4.54124 11.6047 -0.930835
rclavicle 1.49151e-014 -2.5345e-015
rhumerus -45.8261 18.3163 -100.521
rradius 32.2063
rwrist 18.1417
rhand -3.48506 -54.4847
rfingers 7.12502
rthumb 22.2484 -83.2241
lclavicle 1.49151e-014 -2.5345e-015
lhumerus -42.2434 -9.34063 92.0842
lradius 37.6389
lwrist -11.0799
lhand -5.79895 -33.7593
lfingers 7.12502
lthumb 20.0256 -4.77122
rfemur -4.87886 11.8345 23.9614
rtibia 28.4036
rfoot -24.6302 -30.1777
rtoes 5.52464
lfemur -6.58707 -21.9487 -25.6466
ltibia 28.5199
lfoot -23.2617 16.9307
ltoes -32.0506
5
root 8.65782 15.1526 41.9019 177.532 -6.02969 -179.688
lowerback 5.79008 2.50745 4.84788
upperback -3.5954 3.69703 -0.626062
thorax -6.6704 1.55918 -3.78528
lowerneck -2.70641 17.5587 7.55368
upperneck 9.12722 23.4451 -3.99288
head 4.51806 11.6024 -0.969153
rclavicle 4.5736e-014 2.13197e-014
rhumerus -45.8062 18.3022 -100.455
rradius 32.1404
rwrist 18.2362
rhand -3.43508 -54.4486
rfingers 7.12502
rthumb 22.2964 -83.1822
lclavicle 4.5736e-014 2.13197e-014
lhumerus -42.2301 -9.28937 92.149
lradius 37.5618
lwrist -11.0936
lhand -5.79094 -33.8745
lfingers 7.12502
lthumb 20.0333 -4.88723
rfemur -4.98366 11.88 23.9534
rtibia 28.4583
rfoot -24.5845 -30.0404
rtoes 6.09062
lfemur -6.63679 -21.9943 -25.6118
ltibia 28.4769
lfoot -23.3031 16.9356
ltoes -31.8779
6
root 8.65741 15.1481 41.9002 177.379 -6.09996 -179.888
lowerback 5.95925 2.49431 4.60709
upperback -3.54568 3.66828 -0.644639
thorax -6.73002 1.55613 -3.67561
lowerneck -2.56481 17.5158 7.56427
upperneck 8.98147 23.4035 -4.12996
head 4.46606 11.5805 -1.03117
rclavicle -1.28589e-014 -5.41688e-015
rhumerus -45.9983 18.3419 -100.42
rradius 32.5161
rwrist 18.1354
rhand -3.17913 -54.727
rfingers 7.12502
rthumb 22.542 -83.4311
lclavicle -1.28589e-014 -5.41688e-015
lhumerus -42.1713 -9.25581 92.1922
lradius 37.4415
lwrist -11.168
lhand -5.94069 -34.1825
lfingers 7.12502
lthumb 19.8894 -5.18026
rfemur -4.8074 11.7527 23.7578
rtibia 28.536
rfoot -24.7453 -29.9558
rtoes 6.15779
lfemur -6.39114 -22.0469 -25.922
ltibia 28.4203
lfoot -23.3733 16.9199
ltoes -31.5191
7
root 8.65717 15.15 41.8988 177.474 -6.05502 -180.017
lowerback 5.89509 2.53676 4.54833
upperback -3.54475 3.71052 -0.743167
thorax -6.68489 1.57894 -3.74674
lowerneck -2.70403 17.5007 7.53447
upperneck 9.00683 23.3694 -4.03439
head 4.47892 11.5654 -0.991534
rclavicle -2.00338e-014 1.49089e-016
rhumerus -46.0414 18.2287 -100.45
rradius 32.7155
rwrist 17.9944
rhand -3.02302 -55.0524
rfingers 7.12502
rthumb 22.6919 -83.7382
lclavicle -2.00338e-014 1.49089e-016
lhumerus -42.1007 -9.38697 92.1368
lradius 37.4161
lwrist -11.1568
lhand -6.32688 -34.446
lfingers 7.12502
lthumb 19.5181 -5.40568
rfemur -4.94544 11.6462 23.571
rtibia 28.6106
rfoot -24.873 -29.8224
rtoes 5.36812
lfemur -6.43883 -21.9983 -26.0323
ltibia 28.3476
lfoot -23.3793 16.9714
ltoes -31.5522
